<svg width="24" height="25" viewBox="0 0 24 25" fill="none" xmlns="http://www.w3.org/2000/svg">
<path d="M18 8.46521C18 6.87391 17.3679 5.34779 16.2426 4.22257C15.1174 3.09735 13.5913 2.46521 12 2.46521C10.4087 2.46521 8.88258 3.09735 7.75736 4.22257C6.63214 5.34779 6 6.87391 6 8.46521C6 15.4652 3 17.4652 3 17.4652H21C21 17.4652 18 15.4652 18 8.46521Z" fill="#E3E3E3"/>
<path d="M13.73 21.4652C13.5542 21.7683 13.3019 22.0199 12.9982 22.1947C12.6946 22.3696 12.3504 22.4617 12 22.4617C11.6496 22.4617 11.3054 22.3696 11.0018 22.1947C10.6982 22.0199 10.4458 21.7683 10.27 21.4652" stroke="#E3E3E3" stroke-width="2" stroke-linecap="round" stroke-linejoin="round"/>
<circle cx="17.7015" cy="5.16355" r="3.97196" fill="#BB4430"/>
</svg>
