<svg width="24" height="24" viewBox="0 0 24 24" fill="none" xmlns="http://www.w3.org/2000/svg">
<path d="M22.6427 17.8671L17.7236 12.9396V9.28614C17.7243 9.1751 17.703 9.06502 17.661 8.96222C17.619 8.85942 17.5572 8.76592 17.479 8.68708L9.04145 0.24958C8.96302 0.170496 8.8697 0.107726 8.76688 0.0648902C8.66406 0.0220541 8.55378 0 8.44239 0C8.33101 0 8.22072 0.0220541 8.1179 0.0648902C8.01509 0.107726 7.92177 0.170496 7.84333 0.24958L0.24958 7.84333C0.170496 7.92177 0.107726 8.01509 0.0648902 8.11791C0.0220541 8.22072 0 8.33101 0 8.44239C0 8.55378 0.0220541 8.66406 0.0648902 8.76688C0.107726 8.8697 0.170496 8.96302 0.24958 9.04146L8.68708 17.479C8.76592 17.5572 8.85942 17.619 8.96222 17.661C9.06502 17.703 9.1751 17.7243 9.28614 17.7236H12.948L17.8671 22.6511C18.5004 23.2844 19.3593 23.6402 20.2549 23.6402C21.1505 23.6402 22.0094 23.2844 22.6427 22.6511C23.276 22.0179 23.6318 21.1589 23.6318 20.2633C23.6318 19.3677 23.276 18.5088 22.6427 17.8755V17.8671ZM3.37989 7.10083L5.31208 9.04146L6.5102 7.84333L4.56958 5.91114L5.91114 4.56958L9.53083 8.19771L10.729 6.99958L7.10083 3.37989L8.44239 2.03833L14.0027 7.59864L7.59864 14.0027L2.03833 8.44239L3.37989 7.10083ZM21.4446 21.4446C21.1284 21.7589 20.7007 21.9353 20.2549 21.9353C19.8091 21.9353 19.3814 21.7589 19.0652 21.4446L13.893 16.2808C13.7132 16.1572 13.5089 16.0737 13.294 16.0361H9.63208L8.78833 15.1924L15.1924 8.78833L16.0361 9.63208V13.294C16.0371 13.5153 16.125 13.7274 16.2808 13.8846L21.4446 19.0652C21.7589 19.3814 21.9353 19.8091 21.9353 20.2549C21.9353 20.7007 21.7589 21.1284 21.4446 21.4446Z" fill="url(#paint0_linear_47:1470)"/>
<path d="M21.4446 21.4446C21.1284 21.7589 20.7007 21.9353 20.2549 21.9353C19.8091 21.9353 19.3814 21.7589 19.0652 21.4446L13.893 16.2808C13.7132 16.1572 13.5089 16.0737 13.294 16.0361H9.63208L8.78833 15.1924L15.1924 8.78833L16.0361 9.63208V13.294C16.0371 13.5153 16.125 13.7274 16.2808 13.8846L21.4446 19.0652C21.7589 19.3814 21.9353 19.8091 21.9353 20.2549C21.9353 20.7007 21.7589 21.1284 21.4446 21.4446Z" fill="url(#paint1_linear_47:1470)"/>
<defs>
<linearGradient id="paint0_linear_47:1470" x1="11.8159" y1="0" x2="11.8159" y2="23.6402" gradientUnits="userSpaceOnUse">
<stop stop-color="#FFA764"/>
<stop offset="1" stop-color="#F17F29"/>
</linearGradient>
<linearGradient id="paint1_linear_47:1470" x1="11.8159" y1="0" x2="11.8159" y2="23.6402" gradientUnits="userSpaceOnUse">
<stop stop-color="#FFA764"/>
<stop offset="1" stop-color="#F17F29"/>
</linearGradient>
</defs>
</svg>
