<svg width="31" height="23" viewBox="0 0 31 23" fill="none" xmlns="http://www.w3.org/2000/svg">
<path d="M29.3752 10.4007C28.0413 4.37024 26.0339 1.15157 23.0561 0.272382C22.4302 0.0887765 21.7809 -0.00295086 21.1286 7.23584e-05C20.2664 7.23584e-05 19.5155 0.210122 18.7212 0.432749C17.764 0.701286 16.6767 1.0063 15.0912 1.0063C13.5058 1.0063 12.4178 0.701915 11.4587 0.433378C10.6638 0.210122 9.91356 7.23584e-05 9.05387 7.23584e-05C8.37933 -0.00226654 7.70775 0.0891687 7.0584 0.271753C4.09632 1.14717 2.09016 4.36458 0.736783 10.3969C-0.718471 16.8883 -0.00216368 20.9868 2.74546 21.9377C3.12209 22.0704 3.51837 22.1389 3.91771 22.1402C5.79998 22.1402 7.30932 20.5724 8.3407 19.2888C9.50604 17.8361 10.8701 17.099 15.0912 17.099C18.8614 17.099 20.4217 17.6103 21.7694 19.2888C22.6165 20.3441 23.4171 21.0824 24.2158 21.5471C25.278 22.1647 26.3396 22.3018 27.3703 21.9477C28.9941 21.3937 29.9249 19.929 30.1374 17.5933C30.2991 15.8022 30.05 13.4495 29.3752 10.4007ZM12.0725 10.0623H10.0601V12.0748C10.0601 12.3416 9.95408 12.5976 9.76538 12.7863C9.57667 12.975 9.32073 13.081 9.05387 13.081C8.787 13.081 8.53106 12.975 8.34236 12.7863C8.15365 12.5976 8.04764 12.3416 8.04764 12.0748V10.0623H6.03519C5.76832 10.0623 5.51239 9.95632 5.32368 9.76761C5.13498 9.57891 5.02896 9.32297 5.02896 9.0561C5.02896 8.78923 5.13498 8.5333 5.32368 8.34459C5.51239 8.15589 5.76832 8.04988 6.03519 8.04988H8.04764V6.03743C8.04764 5.77056 8.15365 5.51462 8.34236 5.32592C8.53106 5.13721 8.787 5.0312 9.05387 5.0312C9.32073 5.0312 9.57667 5.13721 9.76538 5.32592C9.95408 5.51462 10.0601 5.77056 10.0601 6.03743V8.04988H12.0725C12.3394 8.04988 12.5953 8.15589 12.7841 8.34459C12.9728 8.5333 13.0788 8.78923 13.0788 9.0561C13.0788 9.32297 12.9728 9.57891 12.7841 9.76761C12.5953 9.95632 12.3394 10.0623 12.0725 10.0623ZM17.3552 10.3139C17.1065 10.3139 16.8633 10.2401 16.6564 10.1019C16.4496 9.9637 16.2884 9.76726 16.1932 9.53743C16.098 9.3076 16.0731 9.05471 16.1216 8.81072C16.1701 8.56674 16.2899 8.34262 16.4658 8.16672C16.6417 7.99081 16.8659 7.87102 17.1098 7.82249C17.3538 7.77396 17.6067 7.79887 17.8366 7.89406C18.0664 7.98926 18.2628 8.15047 18.401 8.35732C18.5392 8.56416 18.613 8.80734 18.613 9.0561C18.613 9.38969 18.4805 9.70961 18.2446 9.94549C18.0087 10.1814 17.6888 10.3139 17.3552 10.3139ZM20.1223 13.081C19.8734 13.081 19.6301 13.0072 19.4232 12.8688C19.2163 12.7305 19.0551 12.5338 18.96 12.3038C18.8649 12.0738 18.8402 11.8208 18.889 11.5767C18.9378 11.3326 19.0579 11.1085 19.2341 10.9327C19.4103 10.7569 19.6347 10.6374 19.8789 10.5892C20.1231 10.541 20.3761 10.5664 20.6059 10.6621C20.8356 10.7578 21.0319 10.9195 21.1697 11.1267C21.3075 11.334 21.3808 11.5775 21.3801 11.8264C21.3793 12.1594 21.2464 12.4785 21.0106 12.7137C20.7748 12.9489 20.4554 13.081 20.1223 13.081ZM20.1223 7.54676C19.8736 7.54676 19.6304 7.473 19.4236 7.33479C19.2167 7.19658 19.0555 7.00014 18.9603 6.77031C18.8651 6.54049 18.8402 6.28759 18.8887 6.0436C18.9373 5.79962 19.0571 5.5755 19.233 5.3996C19.4089 5.22369 19.633 5.1039 19.877 5.05537C20.121 5.00684 20.3738 5.03174 20.6037 5.12694C20.8335 5.22214 21.0299 5.38336 21.1682 5.5902C21.3064 5.79704 21.3801 6.04022 21.3801 6.28898C21.3801 6.62257 21.2476 6.94249 21.0117 7.17837C20.7759 7.41425 20.4559 7.54676 20.1223 7.54676ZM22.8895 10.3139C22.6407 10.3139 22.3975 10.2401 22.1907 10.1019C21.9838 9.9637 21.8226 9.76726 21.7274 9.53743C21.6322 9.3076 21.6073 9.05471 21.6559 8.81072C21.7044 8.56674 21.8242 8.34262 22.0001 8.16672C22.176 7.99081 22.4001 7.87102 22.6441 7.82249C22.8881 7.77396 23.141 7.79887 23.3708 7.89406C23.6006 7.98926 23.7971 8.15047 23.9353 8.35732C24.0735 8.56416 24.1473 8.80734 24.1473 9.0561C24.1473 9.38969 24.0147 9.70961 23.7789 9.94549C23.543 10.1814 23.2231 10.3139 22.8895 10.3139Z" fill="url(#paint0_linear_47:1476)"/>
<defs>
<linearGradient id="paint0_linear_47:1476" x1="15.0925" y1="0" x2="15.0925" y2="22.1402" gradientUnits="userSpaceOnUse">
<stop stop-color="#22B04A"/>
<stop offset="1" stop-color="#1E9540"/>
</linearGradient>
</defs>
</svg>
