<svg width="36" height="28" viewBox="0 0 36 28" fill="none" xmlns="http://www.w3.org/2000/svg">
<path d="M18.3057 7.49261C14.3066 7.46412 10.6777 8.88832 7.83504 10.8138C4.99234 12.7393 2.91301 15.1548 2.01862 17.3025C1.94456 17.4848 1.94456 17.6899 2.01862 17.8722C2.91301 20.0198 4.98664 22.4239 7.83504 24.3494C10.6834 26.2749 14.3123 27.7105 18.3057 27.682C22.3049 27.7105 25.9337 26.2749 28.7764 24.3494C31.6248 22.4239 33.6985 20.0198 34.5929 17.8722C34.6669 17.6899 34.6669 17.4848 34.5929 17.3025C34.2169 16.3967 33.6244 15.4567 32.861 14.5167C32.4736 14.0439 31.9097 13.4002 31.1634 12.7052C29.4316 11.0816 24.8855 7.53818 18.3057 7.49261Z" fill="#F1F0F1"/>
<path d="M18.3057 10.5347C14.4148 10.5347 11.236 13.6907 11.236 17.5816C11.236 21.4725 14.4148 24.6399 18.3057 24.6399C22.1966 24.6399 25.3641 21.4725 25.3641 17.5816C25.3641 13.6907 22.1966 10.5347 18.3057 10.5347Z" fill="#47AE4C"/>
<path d="M17.6506 0.565267C17.1721 0.633629 16.8132 1.16343 16.8246 1.78438V4.19982C16.8189 4.86065 17.229 5.40754 17.7418 5.41324C18.2545 5.41893 18.676 4.89483 18.6817 4.234C18.6817 4.22261 18.6817 4.21121 18.6817 4.19982V1.78438C18.6931 1.12355 18.2886 0.576661 17.7702 0.55957C17.7304 0.55957 17.6905 0.559571 17.6506 0.565267Z" fill="#585857"/>
<path d="M27.0731 1.80719C26.6003 1.69896 26.0762 2.06355 25.8654 2.64462L24.9938 4.89485C24.7488 5.51011 24.9368 6.16524 25.4096 6.35893C25.8825 6.55262 26.4692 6.21081 26.7142 5.59556C26.7199 5.58417 26.7199 5.57277 26.7256 5.56138L27.5972 3.31115C27.8479 2.6959 27.6656 2.04076 27.1927 1.84138C27.1529 1.82998 27.113 1.81859 27.0731 1.80719Z" fill="#585857"/>
<path d="M0.395028 7.25331C0.098795 7.63499 0.201337 8.26164 0.63999 8.70599L2.30915 10.4492C2.75919 10.9334 3.43142 11.0417 3.8131 10.6942C4.18909 10.3467 4.12642 9.67444 3.67638 9.19021C3.67068 9.18452 3.65929 9.17312 3.65359 9.16743L1.98443 7.42421C1.53439 6.93998 0.862165 6.82605 0.48048 7.16785C0.451996 7.19064 0.423512 7.22482 0.395028 7.25331Z" fill="#585857"/>
<path d="M34.8834 6.67793C34.4789 6.41018 33.8637 6.56969 33.4592 7.04252L31.8584 8.8484C31.414 9.33833 31.3628 10.0162 31.7388 10.3637C32.1147 10.7113 32.7813 10.5916 33.2256 10.1017C33.2313 10.096 33.2427 10.0846 33.2484 10.0789L34.8492 8.27303C35.2935 7.7831 35.3562 7.10519 34.9802 6.75199C34.946 6.7292 34.9176 6.70071 34.8834 6.67793Z" fill="#585857"/>
<path d="M8.07431 2.33132C7.66984 2.59907 7.57299 3.23141 7.84644 3.784L8.88325 5.96587C9.1624 6.56403 9.76626 6.88305 10.2334 6.67227C10.7005 6.46149 10.8543 5.80066 10.5752 5.2025C10.5695 5.19111 10.5638 5.17971 10.5581 5.17402L9.52699 2.98645C9.25355 2.38259 8.64969 2.06357 8.18255 2.26865C8.14267 2.29144 8.10849 2.30853 8.07431 2.33132Z" fill="#585857"/>
<path d="M15.3833 16.841C15.4516 16.5733 15.5542 16.3283 15.6795 16.1005C15.8048 16.579 16.1751 16.9778 16.6878 17.1088C17.4341 17.2968 18.2032 16.841 18.3912 16.0948C18.5393 15.5194 18.2943 14.9326 17.8386 14.6079C18.2317 14.5452 18.6418 14.5566 19.052 14.6649C20.6699 15.075 21.6497 16.7157 21.2339 18.3336C20.8237 19.9515 19.183 20.9199 17.5651 20.5098C15.9416 20.0996 14.9731 18.4589 15.3833 16.841Z" fill="#585857"/>
</svg>
