<svg width="38" height="24" viewBox="0 0 38 24" fill="none" xmlns="http://www.w3.org/2000/svg">
<path d="M7.22815 20.549C7.22815 20.7488 7.33074 20.9377 7.50351 21.0457C8.78315 21.8556 13.297 23.443 18.6423 23.443C23.9984 23.443 28.5176 21.8502 29.7972 21.0457C29.97 20.9377 30.0726 20.7488 30.0726 20.549V9.88538C30.0348 7.07775 30.4397 6.6512 30.0672 6.75379L19.0472 10.4739C18.9338 10.5063 18.1077 10.3875 17.9943 10.3551L7.35773 6.74839C7.35773 6.74839 7.22815 9.49123 7.22815 9.87998V20.549V20.549Z" fill="#F9DB98"/>
<path d="M19.8679 17.0341V19.8147C19.8679 20.468 19.3172 20.9918 18.6585 20.954C18.0537 20.9162 17.5894 20.4032 17.5894 19.7985V17.0341C17.0549 16.6723 16.7039 16.0568 16.7039 15.3603C16.7039 14.2427 17.611 13.3356 18.7287 13.3356C19.8463 13.3356 20.7534 14.2427 20.7534 15.3603C20.7534 16.0568 20.4024 16.6723 19.8679 17.0341Z" fill="#595957"/>
<path d="M20.0623 15.8408L24.2575 16.6021C24.3223 17.3958 24.9324 18.0816 25.7693 18.1895C26.6548 18.3083 27.4971 17.7252 27.7023 16.8505C27.9291 15.8732 27.2865 14.9122 26.3147 14.734C25.5156 14.5882 24.7435 15.0148 24.4195 15.7221L17.5894 14.4802L17.4274 15.3549L17.4328 15.3603L20.0623 15.8408ZM26.1527 15.6195C26.617 15.7059 26.9248 16.1486 26.8438 16.6129C26.7574 17.0773 26.3147 17.385 25.8503 17.2987C25.386 17.2123 25.0782 16.7695 25.1592 16.3052C25.2456 15.8408 25.6883 15.5331 26.1527 15.6195Z" fill="#595957"/>
<path d="M36.6759 5.57138L36.1036 5.41479C36.1036 5.41479 36.1036 5.41479 36.0982 5.41479L33.2312 4.6211C33.2258 4.6211 33.215 4.6157 33.2096 4.6157L25.3374 2.46678L19.8355 0.960378C19.8247 0.960378 19.8031 0.95498 19.7707 0.95498C19.0796 0.793001 18.3561 0.793001 17.665 0.95498C17.638 0.95498 17.6218 0.960378 17.6164 0.960378L1.25654 5.41479C1.23494 5.42019 1.21334 5.43639 1.19175 5.45799L0.781401 5.57138C0.0416977 5.77115 0.0416977 6.81861 0.781401 7.01839L14.8412 10.8411L17.4814 11.5592C18.2805 11.7752 19.1228 11.7806 19.9219 11.5646H19.9327C19.9381 11.5646 20.0407 11.5376 20.0515 11.5376L27.2433 9.57765L36.6759 7.01839C37.4102 6.82401 37.4102 5.77655 36.6759 5.57138Z" fill="#EFB802"/>
</svg>
