<svg width="31" height="26" viewBox="0 0 31 26" fill="none" xmlns="http://www.w3.org/2000/svg">
<path d="M15.1667 0C14.4667 0 14.2333 0.466667 13.7667 0.933334L0.233333 23.1C5.21541e-08 23.3333 0 23.8 0 24.0333C0 25.2 0.933333 25.6667 1.63333 25.6667H28.7C29.6333 25.6667 30.3333 25.2 30.3333 24.0333C30.3333 23.5667 30.3333 23.5667 30.1 23.1L16.8 0.933334C16.3333 0.466667 15.8667 0 15.1667 0ZM15.1667 3.5L22.8667 16.3333H21L17.5 12.8333L15.1667 16.3333L12.8333 12.8333L9.33333 16.3333H7.23333L15.1667 3.5Z" fill="url(#paint0_linear_47:1464)"/>
<defs>
<linearGradient id="paint0_linear_47:1464" x1="15.1667" y1="0" x2="15.1667" y2="25.6667" gradientUnits="userSpaceOnUse">
<stop stop-color="#7CB4F9"/>
<stop offset="1" stop-color="#6DA2E4"/>
</linearGradient>
</defs>
</svg>
